<svg width="22" height="22" viewBox="0 0 22 22" fill="none" xmlns="http://www.w3.org/2000/svg">
<rect x="1" y="6.42108" width="20" height="14.5789" rx="2" fill="#FFEB00" stroke="#FFEB00" stroke-width="2"/>
<path d="M8.10195 11.9427L11.4575 10.0552C11.5184 10.0209 11.5927 10.0209 11.6536 10.0552L15.0092 11.9427C15.0721 11.9781 15.1111 12.0447 15.1111 12.117V15.883C15.1111 15.9553 15.0721 16.0219 15.0092 16.0573L11.6536 17.9448C11.5927 17.9791 11.5184 17.9791 11.4575 17.9448L8.10195 16.0573C8.03897 16.0219 8 15.9553 8 15.883V12.117C8 12.0447 8.03897 11.9781 8.10195 11.9427Z" fill="#301F6B"/>
<path d="M4 3.21051L18 3.21051" stroke="#FFEB00" stroke-linecap="round"/>
<path d="M7 1L15 0.999999" stroke="#FFEB00" stroke-linecap="round"/>
</svg>
