<svg width="5" height="16" viewBox="0 0 5 16" fill="none" xmlns="http://www.w3.org/2000/svg">
<path d="M2.06875 0.591166C2.5175 0.570668 2.88853 0.703615 3.18186 0.990007C3.47547 1.2829 3.63268 1.65698 3.65348 2.11223C3.67457 2.57399 3.55212 2.96084 3.28613 3.27278C3.02044 3.59123 2.66322 3.7607 2.21446 3.7812C1.77222 3.8014 1.40443 3.66831 1.11111 3.38191C0.824292 3.09522 0.670188 2.71775 0.648798 2.24949C0.627705 1.78773 0.746902 1.40103 1.00639 1.08938C1.27238 0.777439 1.6265 0.611368 2.06875 0.591166Z" fill="white"/>
<path d="M2.33434 6.40542C2.78309 6.38492 3.15412 6.51786 3.44745 6.80426C3.74107 7.09715 3.89827 7.47123 3.91907 7.92648C3.94016 8.38824 3.81771 8.77509 3.55172 9.08703C3.28603 9.40548 2.92881 9.57495 2.48006 9.59545C2.03781 9.61565 1.67002 9.48256 1.3767 9.19616C1.08988 8.90947 0.935779 8.532 0.914389 8.06373C0.893296 7.60198 1.01249 7.21528 1.27198 6.90363C1.53797 6.59169 1.89209 6.42562 2.33434 6.40542Z" fill="white"/>
<path d="M2.59993 12.2197C3.04868 12.1992 3.41971 12.3321 3.71304 12.6185C4.00666 12.9114 4.16386 13.2855 4.18466 13.7407C4.20575 14.2025 4.0833 14.5893 3.81731 14.9013C3.55162 15.2197 3.1944 15.3892 2.74565 15.4097C2.3034 15.4299 1.93561 15.2968 1.64229 15.0104C1.35547 14.7237 1.20137 14.3462 1.17998 13.878C1.15889 13.4162 1.27808 13.0295 1.53757 12.7179C1.80356 12.4059 2.15768 12.2399 2.59993 12.2197Z" fill="white"/>
</svg>
