<svg width="15" height="4" viewBox="0 0 15 4" fill="none" xmlns="http://www.w3.org/2000/svg">
<path d="M3.05176e-05 2.00977C3.05176e-05 1.56055 0.14977 1.19596 0.449249 0.916016C0.755239 0.636068 1.1361 0.496094 1.59183 0.496094C2.05407 0.496094 2.43493 0.636068 2.73441 0.916016C3.0404 1.19596 3.19339 1.56055 3.19339 2.00977C3.19339 2.45247 3.04365 2.8138 2.74417 3.09375C2.44469 3.36719 2.06058 3.50391 1.59183 3.50391C1.12959 3.50391 0.748728 3.36719 0.449249 3.09375C0.14977 2.8138 3.05176e-05 2.45247 3.05176e-05 2.00977Z" fill="white"/>
<path d="M5.82034 2.00977C5.82034 1.56055 5.97008 1.19596 6.26956 0.916016C6.57555 0.636068 6.95641 0.496094 7.41214 0.496094C7.87438 0.496094 8.25524 0.636068 8.55472 0.916016C8.86071 1.19596 9.0137 1.56055 9.0137 2.00977C9.0137 2.45247 8.86396 2.8138 8.56448 3.09375C8.265 3.36719 7.88089 3.50391 7.41214 3.50391C6.9499 3.50391 6.56904 3.36719 6.26956 3.09375C5.97008 2.8138 5.82034 2.45247 5.82034 2.00977Z" fill="white"/>
<path d="M11.6407 2.00977C11.6407 1.56055 11.7904 1.19596 12.0899 0.916016C12.3959 0.636068 12.7767 0.496094 13.2325 0.496094C13.6947 0.496094 14.0756 0.636068 14.375 0.916016C14.681 1.19596 14.834 1.56055 14.834 2.00977C14.834 2.45247 14.6843 2.8138 14.3848 3.09375C14.0853 3.36719 13.7012 3.50391 13.2325 3.50391C12.7702 3.50391 12.3894 3.36719 12.0899 3.09375C11.7904 2.8138 11.6407 2.45247 11.6407 2.00977Z" fill="white"/>
</svg>
