<svg width="42" height="44" viewBox="0 0 42 44" fill="none" xmlns="http://www.w3.org/2000/svg">
<g filter="url(#filter0_d_501_493)">
<path d="M16.4233 16C16.4233 15.8619 16.5352 15.75 16.6733 15.75H21.3366H24.1683H26C26.1381 15.75 26.25 15.8619 26.25 16V27.3408C26.25 27.4789 26.1381 27.5908 26 27.5908H21.3366H16.6733C16.5352 27.5908 16.4233 27.4789 16.4233 27.3408V25.8663V16Z" stroke="black" stroke-width="1.5"/>
</g>
<path fill-rule="evenodd" clip-rule="evenodd" d="M14.6074 17.9889C14.6074 17.8068 14.4598 17.6592 14.2778 17.6592H13.7778C13.2255 17.6592 12.7778 18.107 12.7778 18.6592V19.1592V28.5255V29.5001V30.0001C12.7778 30.5523 13.2255 31.0001 13.7778 31.0001H14.2778H18.4411H22.6044H23.1044C23.6567 31.0001 24.1044 30.5523 24.1044 30.0001V29.5001C24.1044 29.3248 23.9624 29.1828 23.7872 29.1828H22.7631C22.6755 29.1828 22.6044 29.2538 22.6044 29.3414C22.6044 29.429 22.5334 29.5001 22.4458 29.5001H18.4411H15.2523C14.7141 29.5001 14.2778 29.0638 14.2778 28.5255V19.3241C14.2778 19.233 14.3516 19.1592 14.4426 19.1592C14.5336 19.1592 14.6074 19.0854 14.6074 18.9944V17.9889Z" fill="black"/>
<defs>
<filter id="filter0_d_501_493" x="0.673309" y="0" width="41.3267" height="43.3408" filterUnits="userSpaceOnUse" color-interpolation-filters="sRGB">
<feFlood flood-opacity="0" result="BackgroundImageFix"/>
<feColorMatrix in="SourceAlpha" type="matrix" values="0 0 0 0 0 0 0 0 0 0 0 0 0 0 0 0 0 0 127 0" result="hardAlpha"/>
<feOffset/>
<feGaussianBlur stdDeviation="7.5"/>
<feColorMatrix type="matrix" values="0 0 0 0 1 0 0 0 0 1 0 0 0 0 1 0 0 0 0.4 0"/>
<feBlend mode="normal" in2="BackgroundImageFix" result="effect1_dropShadow_501_493"/>
<feBlend mode="normal" in="SourceGraphic" in2="effect1_dropShadow_501_493" result="shape"/>
</filter>
</defs>
</svg>
