<svg width="24" height="24" viewBox="0 0 24 24" fill="none" xmlns="http://www.w3.org/2000/svg">
<g clip-path="url(#clip0_1588_183)">
<path d="M10.191 20.4632C4.58293 20.4632 0.603027 15.9158 0.603027 10.2316C0.603027 4.54737 4.58293 0 10.191 0C15.799 0 20.3819 4.61053 20.3819 10.2316C20.3819 15.8526 15.799 20.4632 10.191 20.4632ZM10.191 2.4C6.03016 2.52632 2.83418 6.18947 2.95479 10.5474C3.13569 14.9053 6.63318 18.2526 10.794 18.1263C14.8342 17.9368 18.0302 14.4632 18.0302 10.2316C17.9096 5.81053 14.4121 2.27368 10.191 2.4ZM22.8543 24C22.5528 24 22.2513 23.8737 22.0101 23.6211L15.799 17.3684C15.3769 16.9263 15.3166 16.2316 15.7387 15.7263L15.799 15.6632C16.2814 15.2211 17.005 15.2211 17.4875 15.6632L23.6985 21.9158C24.1206 22.3579 24.1809 23.0526 23.7588 23.5579C23.7588 23.5579 23.7588 23.6211 23.6985 23.6211C23.4573 23.8737 23.1558 24 22.8543 24Z" fill="white"/>
</g>
<defs>
<clipPath id="clip0_1588_183">
<rect width="24" height="24" fill="white"/>
</clipPath>
</defs>
</svg>
