<svg width="26" height="28" viewBox="0 0 26 28" fill="none" xmlns="http://www.w3.org/2000/svg">
<path d="M19.3206 9.09753H11.15C10.9253 8.46035 10.2943 8 9.55234 8C8.81038 8 8.17932 8.46035 7.95469 9.09753H6.67931C6.38304 9.09753 6.14285 9.32692 6.14285 9.60986C6.14285 9.89281 6.38304 10.1222 6.67931 10.1222H7.95473C8.17936 10.7594 8.81041 11.2197 9.55237 11.2197C10.2943 11.2197 10.9254 10.7594 11.15 10.1222H19.3207C19.617 10.1222 19.8571 9.89281 19.8571 9.60986C19.8571 9.32692 19.6169 9.09753 19.3206 9.09753ZM9.55234 10.1951C9.21447 10.1951 8.93959 9.93253 8.93959 9.60986C8.93959 9.28719 9.21447 9.02467 9.55234 9.02467C9.8902 9.02467 10.1651 9.28719 10.1651 9.60986C10.1651 9.93253 9.8902 10.1951 9.55234 10.1951Z" fill="white"/>
<path d="M19.3206 13.4877H18.0452C17.8206 12.8505 17.1895 12.3901 16.4476 12.3901C15.7057 12.3901 15.0746 12.8505 14.85 13.4877H6.67931C6.38304 13.4877 6.14285 13.7171 6.14285 14C6.14285 14.2829 6.38304 14.5123 6.67931 14.5123H14.85C15.0746 15.1495 15.7057 15.6099 16.4476 15.6099C17.1895 15.6099 17.8206 15.1495 18.0453 14.5123H19.3207C19.617 14.5123 19.8571 14.2829 19.8571 14C19.8571 13.7171 19.6169 13.4877 19.3206 13.4877ZM16.4476 14.5852C16.1098 14.5852 15.8349 14.3227 15.8349 14C15.8349 13.6773 16.1098 13.4148 16.4476 13.4148C16.7855 13.4148 17.0604 13.6773 17.0604 14C17.0604 14.3227 16.7855 14.5852 16.4476 14.5852Z" fill="white"/>
<path d="M19.3206 17.8778H13.4484C13.2238 17.2406 12.5927 16.7803 11.8508 16.7803C11.1088 16.7803 10.4778 17.2406 10.2531 17.8778H6.67931C6.38304 17.8778 6.14285 18.1072 6.14285 18.3901C6.14285 18.6731 6.38304 18.9025 6.67931 18.9025H10.2531C10.4778 19.5396 11.1088 20 11.8508 20C12.5927 20 13.2238 19.5396 13.4484 18.9025H19.3207C19.617 18.9025 19.8571 18.6731 19.8571 18.3901C19.8571 18.1072 19.6169 17.8778 19.3206 17.8778ZM11.8508 18.9754C11.5129 18.9754 11.238 18.7128 11.238 18.3902C11.238 18.0675 11.5129 17.805 11.8508 17.805C12.1886 17.805 12.4635 18.0675 12.4635 18.3901C12.4635 18.7128 12.1886 18.9754 11.8508 18.9754Z" fill="white"/>
<rect x="0.5" y="0.5" width="25" height="27" rx="4.5" stroke="white"/>
</svg>
