<svg width="20" height="23" viewBox="0 0 20 23" fill="none" xmlns="http://www.w3.org/2000/svg">
<rect x="8.70032" y="0.5" width="1.7" height="3.23077" rx="0.85" stroke="#FFFBFB"/>
<path d="M1.24401 18.2919C1.4987 17.9501 1.89708 17.4036 2.16129 16.9835C4.11964 13.8703 3.7 9.7308 4.6 7.19234C5.5 4.65387 6.74279 3.38464 9.55 3.38464C12.3572 3.38465 14.275 4.65387 14.95 7.19234C15.5125 9.30772 15.6613 14.0824 17.65 16.9835C17.9777 17.4616 18.3977 17.953 18.6816 18.2699C18.7992 18.4013 18.7062 18.6154 18.5298 18.6154H1.40568C1.23984 18.6154 1.14491 18.4248 1.24401 18.2919Z" stroke="white" stroke-width="2" stroke-linecap="round"/>
<path d="M7.41712 18.6154C6.94775 19.5824 7.88648 22 10.2333 22C12.1108 22 13.0495 19.5824 12.5802 18.6154" stroke="white" stroke-width="2" stroke-linecap="round"/>
</svg>
