<svg width="25" height="23" viewBox="0 0 25 23" fill="none" xmlns="http://www.w3.org/2000/svg">
<rect x="10.4033" y="13.0792" width="4.19219" height="5.1223" stroke="white" stroke-width="2"/>
<path d="M23.7332 3.37408H10.0847C9.98224 3.37408 9.89723 3.44585 9.88953 3.54803C9.79217 4.83828 9.41339 12.8705 15.0735 12.8705C20.6291 12.8705 23.4285 5.13209 23.9207 3.62628C23.9621 3.49952 23.8666 3.37408 23.7332 3.37408Z" stroke="white" stroke-width="2"/>
<path d="M14.9152 3.37408H1.26675C1.13339 3.37408 1.03787 3.49953 1.07931 3.62629C1.57158 5.13212 4.37158 12.8705 9.92716 12.8705C15.5872 12.8705 15.2078 4.83822 15.1104 3.54801C15.1027 3.44584 15.0177 3.37408 14.9152 3.37408Z" stroke="white" stroke-width="2"/>
<path d="M19.3635 1H5.63749C5.52179 1 5.43006 1.09031 5.43984 1.20559C5.58329 2.89697 6.773 14.4532 12.5005 14.4532C18.228 14.4532 19.4177 2.89697 19.5612 1.20559C19.5709 1.09031 19.4792 1 19.3635 1Z" fill="#0A012A" stroke="white" stroke-width="2"/>
<path fill-rule="evenodd" clip-rule="evenodd" d="M8.30646 17.4101C6.6496 17.4101 5.30646 18.7532 5.30646 20.4101V22.1079C5.30646 22.1416 5.30701 22.1752 5.30812 22.2087H7.31147C7.30815 22.1755 7.30646 22.1419 7.30646 22.1079V20.4101C7.30646 19.8578 7.75417 19.4101 8.30646 19.4101H16.6908C17.2431 19.4101 17.6908 19.8578 17.6908 20.4101V22.1079C17.6908 22.1419 17.6891 22.1755 17.6858 22.2087H19.6892C19.6903 22.1752 19.6908 22.1416 19.6908 22.1079V20.4101C19.6908 18.7532 18.3477 17.4101 16.6908 17.4101H8.30646Z" fill="white"/>
<line x1="4.65341" y1="22" x2="20.3454" y2="22" stroke="white" stroke-width="2" stroke-linecap="round"/>
</svg>
