<svg width="17" height="17" viewBox="0 0 17 17" fill="none" xmlns="http://www.w3.org/2000/svg">
<path d="M8.06915 13.1875C8.06915 13.4636 8.29301 13.6875 8.56915 13.6875C8.8453 13.6875 9.06915 13.4636 9.06915 13.1875L8.06915 13.1875ZM8.92271 0.646446C8.72744 0.451184 8.41086 0.451184 8.2156 0.646446L5.03362 3.82843C4.83836 4.02369 4.83836 4.34027 5.03362 4.53553C5.22888 4.7308 5.54546 4.7308 5.74073 4.53553L8.56915 1.70711L11.3976 4.53553C11.5928 4.7308 11.9094 4.7308 12.1047 4.53553C12.2999 4.34027 12.2999 4.02369 12.1047 3.82843L8.92271 0.646446ZM9.06915 13.1875L9.06915 1L8.06915 1L8.06915 13.1875L9.06915 13.1875Z" fill="black"/>
<path d="M1.06915 10.8438V15C1.06915 15.5523 1.51687 16 2.06915 16H14.6379C15.1902 16 15.6379 15.5523 15.6379 15V10.8438" stroke="black" stroke-width="1.5"/>
</svg>
